<svg width="376" height="603" viewBox="0 0 376 603" fill="none" xmlns="http://www.w3.org/2000/svg">
<path d="M326.574 418.229C286.804 405.036 251.801 380.432 225.928 347.481C185.193 296.518 170.804 238.295 182.76 172.815C191.674 123.959 213.654 80.2325 248.7 41.6362L215.42 0.000165591C154.37 49.3257 119.503 110.6 110.819 183.822C102.107 257.595 122.095 324.938 170.783 385.852C202.984 426.138 241.797 455.334 287.223 473.439C331.647 491.458 380.161 496.978 427.512 489.4C475.299 481.958 519.25 462.289 559.364 430.392L531.143 395.085C506.638 408.804 480.202 418.741 452.73 424.559C408.789 433.788 366.737 431.678 326.574 418.229Z" fill="#FFE600"/>
<path d="M377.545 353.043C340.12 347.474 308.712 328.815 283.32 297.065C257.928 265.316 246.727 230.922 249.716 193.881C252.654 157.153 268.748 126.964 297.998 103.312L248.548 41.4454C213.56 79.9892 191.629 123.7 182.754 172.578C170.825 238.026 185.266 296.27 226.076 347.309C251.973 380.288 286.988 404.929 326.759 418.162C366.93 431.661 408.981 433.804 452.911 424.592C480.369 418.799 506.788 408.886 531.272 395.189L476.759 326.988C447.752 349.886 414.68 358.571 377.545 353.043Z" fill="#ED910C"/>
</svg>
