<svg width="430" height="245" viewBox="0 0 430 245" fill="none" xmlns="http://www.w3.org/2000/svg">
<g opacity="0.05">
<path d="M426.179 82.4184C426.179 59.5354 419.015 41.465 404.686 28.2057C391.454 15.5749 373.242 8.86206 350.048 8.0724L345.344 7.99408V5.12988C371.297 5.13025 391.873 12.009 406.667 26.1303H406.661C421.658 40.0233 429.043 58.9025 429.043 82.4184C429.043 105.017 422.097 123.434 408.031 137.381L406.65 138.718C391.854 152.616 371.285 159.382 345.344 159.383H291.103V239.261H242.07V5.12988H345.344V7.99408H244.935V236.397H288.239V156.518H345.344L350.048 156.44C373.242 155.663 391.454 149.061 404.686 136.631C418.119 124 425.255 107.328 426.095 86.614L426.179 82.4184ZM379.692 82.4184C379.692 71.0018 376.443 62.6541 370.327 56.9204L370.293 56.8868C364.37 51.1553 355.569 48.0709 343.419 48.0704H291.103V116.442H343.419V119.306H288.239V45.2063H343.419C356.036 45.2067 365.661 48.4128 372.291 54.8282C379.134 61.2439 382.556 70.4426 382.556 82.4184L382.511 84.6281C382.111 95.5296 378.705 103.988 372.291 110.003L371.009 111.133C364.444 116.583 355.247 119.306 343.419 119.306V116.442C355.592 116.442 364.405 113.454 370.327 107.916L371.44 106.809C376.836 101.126 379.691 93.1212 379.692 82.4184Z" fill="white"/>
<path d="M0 122.198C0 85.078 10.3224 55.2258 31.2488 32.9774C51.9689 10.9349 79.5 0.000375744 113.533 0C140.807 0 164.217 7.31733 183.599 22.0744C203.088 36.9128 215.166 58.3525 219.972 86.0993L220.554 89.4502H170.979L170.425 87.302C166.708 72.846 159.863 62.1266 150.012 54.8896L149.962 54.8561L151.707 52.5849C162.186 60.2834 169.35 71.6169 173.2 86.586H217.147C212.589 60.275 201.41 39.9852 183.605 25.7162L181.865 24.3569C164.222 10.9238 143.099 3.78767 118.501 2.94811L113.533 2.8642C80.1716 2.86457 53.4379 13.5553 33.3354 34.941L31.4614 36.9884C12.3951 58.3664 2.8642 86.7715 2.8642 122.198L2.89217 125.583C3.51375 160.356 13.771 188.206 33.6599 209.131C53.3419 230.055 78.9441 240.845 110.467 241.499L113.533 241.532C140.907 241.532 164.433 233.616 184.109 217.791C203.997 201.965 215.329 179.51 218.11 150.426H174.805C172.453 167.107 165.609 180.153 154.275 189.563L152.121 191.269C141.232 199.539 128.369 203.677 113.533 203.677V200.813C128.744 200.813 141.665 196.309 152.446 187.359C163.153 178.469 169.701 166.107 171.969 150.023L172.316 147.562H221.265L220.963 150.7C218.12 180.432 206.482 203.651 185.893 220.034L185.887 220.028C165.662 236.292 141.495 244.396 113.533 244.396C79.907 244.396 52.4935 233.335 31.5733 211.095V211.089C10.4381 188.847 0.000489656 159.111 0 122.198ZM48.0928 122.198C48.0928 96.7493 53.8698 76.8598 65.4178 62.5312C77.1798 47.9892 93.2171 40.7145 113.533 40.7141C128.717 40.7141 141.442 44.6723 151.707 52.5849L149.962 54.8505C140.28 47.3875 128.197 43.5783 113.533 43.5783C93.9966 43.5787 78.811 50.5264 67.6443 64.3325L67.6387 64.3269C56.6351 77.982 50.957 97.1578 50.957 122.198C50.9573 147.461 56.6419 166.737 67.6443 180.388C78.5811 193.958 93.7563 200.812 113.533 200.813V203.677L109.74 203.593C91.6421 202.782 77.2348 196.084 66.5142 183.504L65.4178 182.184C54.5913 168.751 48.8367 150.337 48.1599 126.942L48.0928 122.198Z" fill="white"/>
</g>
</svg>
