<svg width="171" height="66" viewBox="0 0 171 66" fill="none" xmlns="http://www.w3.org/2000/svg">
<path d="M77.8471 20.4542C76.4574 20.4542 75.2051 20.154 74.0902 19.5537C72.9914 18.9362 72.1269 18.0872 71.4967 17.0066C70.8826 15.926 70.5756 14.6996 70.5756 13.3274C70.5756 11.9552 70.8826 10.7288 71.4967 9.64821C72.1269 8.56761 72.9914 7.72714 74.0902 7.12681C75.2051 6.50932 76.4574 6.20058 77.8471 6.20058C79.2206 6.20058 80.4164 6.50932 81.4344 7.12681C82.4685 7.72714 83.2199 8.59334 83.6885 9.72539L80.7557 11.3977C80.077 10.1285 79.0994 9.49384 77.8229 9.49384C76.8372 9.49384 76.0211 9.83688 75.3748 10.523C74.7284 11.2091 74.4053 12.1439 74.4053 13.3274C74.4053 14.5109 74.7284 15.4457 75.3748 16.1318C76.0211 16.8179 76.8372 17.1609 77.8229 17.1609C79.1156 17.1609 80.0932 16.5263 80.7557 15.257L83.6885 16.9551C83.2199 18.0529 82.4685 18.9105 81.4344 19.528C80.4164 20.1455 79.2206 20.4542 77.8471 20.4542Z" fill="white"/>
<path d="M89.4771 8.23314C89.9296 7.5642 90.5355 7.0582 91.295 6.71515C92.0706 6.37211 92.9593 6.20058 93.9612 6.20058V9.90549C93.5411 9.87119 93.2583 9.85404 93.1128 9.85404C92.0302 9.85404 91.1819 10.1799 90.5678 10.8317C89.9538 11.4664 89.6468 12.4269 89.6468 13.7133V20.2484H85.8656V6.40641H89.4771V8.23314Z" fill="white"/>
<path d="M108.865 13.3788C108.865 13.4303 108.84 13.7905 108.792 14.4594H98.927C99.1047 15.3171 99.5249 15.9946 100.187 16.492C100.85 16.9894 101.674 17.2381 102.66 17.2381C103.338 17.2381 103.936 17.1352 104.453 16.9294C104.987 16.7064 105.479 16.3634 105.932 15.9002L107.944 18.2158C106.716 19.7081 104.922 20.4542 102.563 20.4542C101.092 20.4542 99.7915 20.154 98.6604 19.5537C97.5293 18.9362 96.6567 18.0872 96.0426 17.0066C95.4286 15.926 95.1216 14.6996 95.1216 13.3274C95.1216 11.9724 95.4205 10.7545 96.0184 9.67394C96.6324 8.57619 97.4646 7.72714 98.5149 7.12681C99.5814 6.50932 100.769 6.20058 102.078 6.20058C103.355 6.20058 104.51 6.49217 105.544 7.07535C106.578 7.65853 107.386 8.499 107.968 9.59675C108.566 10.6774 108.865 11.938 108.865 13.3788ZM102.102 9.23655C101.246 9.23655 100.527 9.49384 99.945 10.0084C99.3633 10.523 99.0078 11.2262 98.8785 12.1181H105.302C105.172 11.2434 104.817 10.5487 104.235 10.0341C103.653 9.50241 102.942 9.23655 102.102 9.23655Z" fill="white"/>
<path d="M116.287 6.20058C118.307 6.20058 119.858 6.71515 120.94 7.74429C122.023 8.75628 122.564 10.2914 122.564 12.3497V20.2484H119.026V18.5246C118.315 19.811 116.99 20.4542 115.051 20.4542C114.049 20.4542 113.176 20.2741 112.433 19.9139C111.706 19.5537 111.148 19.0563 110.76 18.4216C110.373 17.787 110.179 17.0666 110.179 16.2604C110.179 14.974 110.631 13.962 111.536 13.2245C112.457 12.4869 113.871 12.1181 115.778 12.1181H118.783C118.783 11.2434 118.533 10.5744 118.032 10.1113C117.531 9.63106 116.78 9.39092 115.778 9.39092C115.083 9.39092 114.396 9.51099 113.717 9.75112C113.055 9.9741 112.489 10.2828 112.021 10.6774L110.663 7.87294C111.374 7.34121 112.223 6.92956 113.208 6.63797C114.21 6.34638 115.236 6.20058 116.287 6.20058ZM115.996 17.7527C116.642 17.7527 117.216 17.5983 117.717 17.2896C118.218 16.9637 118.573 16.492 118.783 15.8745V14.4594H116.19C114.639 14.4594 113.863 14.9997 113.863 16.0803C113.863 16.5949 114.049 17.0066 114.42 17.3153C114.808 17.6069 115.333 17.7527 115.996 17.7527Z" fill="white"/>
<path d="M134.397 19.5794C134.026 19.871 133.565 20.094 133.016 20.2484C132.482 20.3856 131.917 20.4542 131.319 20.4542C129.768 20.4542 128.564 20.034 127.707 19.1935C126.867 18.353 126.447 17.1181 126.447 15.4886V9.80258H124.435V6.71515H126.447V3.34471H130.228V6.71515H133.476V9.80258H130.228V15.4371C130.228 16.0203 130.366 16.4749 130.64 16.8007C130.931 17.1095 131.335 17.2639 131.852 17.2639C132.45 17.2639 132.959 17.0923 133.379 16.7493L134.397 19.5794Z" fill="white"/>
<path d="M136.52 6.40641H140.301V20.2484H136.52V6.40641ZM138.41 4.47677C137.716 4.47677 137.15 4.26236 136.714 3.83356C136.277 3.40475 136.059 2.87302 136.059 2.23838C136.059 1.60375 136.277 1.07202 136.714 0.643215C137.15 0.214405 137.716 0 138.41 0C139.105 0 139.671 0.205829 140.107 0.617487C140.543 1.02914 140.761 1.54371 140.761 2.1612C140.761 2.83014 140.543 3.38759 140.107 3.83356C139.671 4.26236 139.105 4.47677 138.41 4.47677Z" fill="white"/>
<path d="M156.753 6.40641L151.251 20.2484H147.349L141.871 6.40641H145.773L149.385 15.8231L153.118 6.40641H156.753Z" fill="white"/>
<path d="M170.715 13.3788C170.715 13.4303 170.691 13.7905 170.642 14.4594H160.777C160.955 15.3171 161.375 15.9946 162.038 16.492C162.7 16.9894 163.524 17.2381 164.51 17.2381C165.189 17.2381 165.786 17.1352 166.303 16.9294C166.837 16.7064 167.33 16.3634 167.782 15.9002L169.794 18.2158C168.566 19.7081 166.772 20.4542 164.413 20.4542C162.942 20.4542 161.642 20.154 160.511 19.5537C159.379 18.9362 158.507 18.0872 157.893 17.0066C157.279 15.926 156.972 14.6996 156.972 13.3274C156.972 11.9724 157.271 10.7545 157.869 9.67394C158.483 8.57619 159.315 7.72714 160.365 7.12681C161.432 6.50932 162.619 6.20058 163.928 6.20058C165.205 6.20058 166.36 6.49217 167.394 7.07535C168.428 7.65853 169.236 8.499 169.818 9.59675C170.416 10.6774 170.715 11.938 170.715 13.3788ZM163.952 9.23655C163.096 9.23655 162.377 9.49384 161.795 10.0084C161.213 10.523 160.858 11.2262 160.729 12.1181H167.152C167.023 11.2434 166.667 10.5487 166.085 10.0341C165.504 9.50241 164.793 9.23655 163.952 9.23655Z" fill="white"/>
<path d="M79.2529 29.3805C80.4648 29.3805 81.5636 29.6807 82.5493 30.281C83.5512 30.8642 84.3349 31.6961 84.9004 32.7767C85.466 33.8401 85.7488 35.0837 85.7488 36.5073C85.7488 37.931 85.466 39.1831 84.9004 40.2637C84.3349 41.3272 83.5512 42.159 82.5493 42.7594C81.5636 43.3426 80.4648 43.6342 79.2529 43.6342C77.5886 43.6342 76.2797 43.0767 75.3263 41.9618V48.4197H71.5452V29.5864H75.1567V31.1815C76.0939 29.9809 77.4593 29.3805 79.2529 29.3805ZM78.5985 40.3409C79.568 40.3409 80.3598 39.9979 80.9738 39.3118C81.604 38.6085 81.9191 37.6737 81.9191 36.5073C81.9191 35.341 81.604 34.4148 80.9738 33.7287C80.3598 33.0254 79.568 32.6738 78.5985 32.6738C77.629 32.6738 76.8291 33.0254 76.1989 33.7287C75.5849 34.4148 75.2778 35.341 75.2778 36.5073C75.2778 37.6737 75.5849 38.6085 76.1989 39.3118C76.8291 39.9979 77.629 40.3409 78.5985 40.3409Z" fill="white"/>
<path d="M88.28 29.5864H92.0611V43.4283H88.28V29.5864ZM90.1705 27.6567C89.4757 27.6567 88.9102 27.4423 88.4739 27.0135C88.0376 26.5847 87.8194 26.053 87.8194 25.4183C87.8194 24.7837 88.0376 24.252 88.4739 23.8232C88.9102 23.3944 89.4757 23.18 90.1705 23.18C90.8654 23.18 91.4309 23.3858 91.8672 23.7974C92.3035 24.2091 92.5217 24.7237 92.5217 25.3412C92.5217 26.0101 92.3035 26.5675 91.8672 27.0135C91.4309 27.4423 90.8654 27.6567 90.1705 27.6567Z" fill="white"/>
<path d="M103.86 43.4283L101 39.1831L98.0427 43.4283H93.9222L98.9395 36.4559L94.0918 29.5864H98.3335L101.097 33.6258L103.933 29.5864H107.956L103.108 36.353L108.15 43.4283H103.86Z" fill="white"/>
<path d="M122.357 36.5588C122.357 36.6103 122.332 36.9705 122.284 37.6394H112.419C112.597 38.497 113.017 39.1745 113.679 39.672C114.342 40.1694 115.166 40.4181 116.152 40.4181C116.83 40.4181 117.428 40.3152 117.945 40.1093C118.479 39.8864 118.971 39.5433 119.424 39.0802L121.436 41.3958C120.208 42.888 118.414 43.6342 116.055 43.6342C114.584 43.6342 113.284 43.334 112.152 42.7337C111.021 42.1162 110.149 41.2671 109.535 40.1865C108.921 39.1059 108.614 37.8795 108.614 36.5073C108.614 35.1523 108.913 33.9345 109.51 32.8539C110.124 31.7561 110.957 30.9071 112.007 30.3068C113.073 29.6893 114.261 29.3805 115.57 29.3805C116.847 29.3805 118.002 29.6721 119.036 30.2553C120.07 30.8385 120.878 31.679 121.46 32.7767C122.058 33.8573 122.357 35.118 122.357 36.5588ZM115.594 32.4165C114.738 32.4165 114.019 32.6738 113.437 33.1884C112.855 33.7029 112.5 34.4062 112.371 35.2981H118.794C118.664 34.4233 118.309 33.7287 117.727 33.2141C117.145 32.6824 116.434 32.4165 115.594 32.4165Z" fill="white"/>
<path d="M124.874 24.3377H128.655V43.4283H124.874V24.3377Z" fill="white"/>
<path d="M136.552 43.6342C135.469 43.6342 134.411 43.4969 133.376 43.2225C132.342 42.9309 131.518 42.5707 130.904 42.1419L132.164 39.2603C132.746 39.6548 133.449 39.9807 134.273 40.238C135.097 40.4781 135.905 40.5982 136.697 40.5982C138.297 40.5982 139.097 40.178 139.097 39.3375C139.097 38.943 138.878 38.66 138.442 38.4884C138.006 38.3169 137.335 38.1711 136.43 38.0511C135.364 37.8795 134.483 37.6823 133.788 37.4593C133.094 37.2363 132.488 36.8418 131.971 36.2758C131.47 35.7098 131.219 34.9036 131.219 33.8573C131.219 32.9825 131.453 32.2107 131.922 31.5417C132.407 30.8556 133.102 30.3239 134.007 29.9466C134.928 29.5692 136.01 29.3805 137.255 29.3805C138.176 29.3805 139.089 29.492 139.993 29.715C140.914 29.9208 141.674 30.2124 142.272 30.5898L141.011 33.4456C139.864 32.7596 138.612 32.4165 137.255 32.4165C136.447 32.4165 135.841 32.5366 135.437 32.7767C135.033 33.0168 134.831 33.3256 134.831 33.7029C134.831 34.1317 135.049 34.4319 135.485 34.6034C135.921 34.775 136.616 34.9379 137.57 35.0923C138.636 35.281 139.509 35.4868 140.187 35.7098C140.866 35.9156 141.456 36.3015 141.957 36.8675C142.458 37.4336 142.708 38.2226 142.708 39.2346C142.708 40.0922 142.466 40.8555 141.981 41.5244C141.496 42.1934 140.785 42.7165 139.848 43.0939C138.927 43.4541 137.828 43.6342 136.552 43.6342Z" fill="white"/>
<path d="M9.49819 37.5552C7.52338 34.3174 6.48239 30.5352 6.51683 26.6758C6.51683 20.6674 8.69066 15.6503 13.0422 11.6284C16.2876 8.62622 20.1377 6.74123 24.5964 5.98154V1.07407C17.8031 1.11063 12.1313 3.51562 7.58844 8.28497C3.00732 13.0909 0.714844 19.0871 0.714844 26.2696C0.714844 31.0146 1.76349 35.3492 3.85312 39.2655C5.88535 43.1167 8.87054 46.3017 12.4834 48.4792C16.1192 50.6973 20.153 51.8063 24.5887 51.8185V47.6586C22.1891 47.2361 19.866 46.4317 17.6922 45.2698C14.2209 43.4051 11.4883 40.8336 9.49819 37.5552Z" fill="#FFE400"/>
<path d="M16.4713 35.792C14.2362 33.2449 13.1187 30.0964 13.1187 26.3549C13.1187 22.6133 14.2209 19.4974 16.4254 17.0071C18.6145 14.5331 21.3356 13.2859 24.6002 13.2696V5.98154C20.1454 6.74529 16.2914 8.62622 13.046 11.6284C8.69832 15.6503 6.52066 20.6674 6.52066 26.6758C6.49004 30.5352 7.5272 34.3174 9.50585 37.5552C11.4921 40.8336 14.2247 43.4051 17.6998 45.2657C19.8698 46.4276 22.1929 47.232 24.5925 47.6545V39.6108C21.3892 39.5945 18.6834 38.323 16.4713 35.792Z" fill="#EC9122"/>
<path d="M52.9136 12.6643C55.1295 15.3578 56.5456 18.6849 56.9895 22.2274C57.732 27.7402 56.3542 32.6436 52.8638 36.9417C50.2575 40.147 46.9547 42.4098 42.9591 43.7261L43.5638 48.2273C49.7983 47.2482 54.7009 44.2583 58.2831 39.2533C61.8883 34.2036 63.2469 28.3861 62.359 21.7887C61.7735 17.4337 60.2809 13.6028 57.8774 10.3C55.539 7.04998 52.4084 4.53936 48.8262 3.04437C45.221 1.52094 41.3785 1.05782 37.3026 1.66313L37.8154 5.48592C40.0696 5.53873 42.3047 5.95717 44.4402 6.71685C47.8617 7.95185 50.6862 9.93434 52.9136 12.6643Z" fill="#EC3593"/>
<path d="M46.7442 15.2481C49.1094 17.2793 50.5216 20.0093 50.9809 23.4421C51.4401 26.8708 50.8125 29.8852 49.0979 32.4811C47.3948 35.0527 45.0449 36.5761 42.0521 37.0473L42.9515 43.7261C46.947 42.4058 50.246 40.147 52.8562 36.9417C56.3504 32.6477 57.7243 27.7402 56.9857 22.2274C56.5379 18.6809 55.1219 15.3578 52.9098 12.6643C50.6785 9.93028 47.8541 7.95185 44.4402 6.72498C42.3047 5.96123 40.0696 5.54686 37.8154 5.49405L38.8066 12.8675C41.7497 12.4409 44.3981 13.2371 46.7442 15.2481Z" fill="#B11F80"/>
<path d="M37.4392 1.70426L28.1791 3.1062L36.6298 66L45.8899 64.5981L37.4392 1.70426Z" fill="#EC3593"/>
</svg>
