<svg width="12" height="12" viewBox="0 0 12 12" fill="none" xmlns="http://www.w3.org/2000/svg">
<path d="M6.54545 12L5.45455 12L5.45455 11.4545L4.90909 11.4545L4.90909 10.9091L4.36364 10.9091L4.36364 10.3636L3.81818 10.3636L3.81818 9.81818L3.27273 9.81818L3.27273 9.27273L2.72727 9.27273L2.72727 8.72727L2.18182 8.72727L2.18182 8.18182L1.63636 8.18182L1.63636 7.63636L1.09091 7.63636L1.09091 7.09091L0.545454 7.09091L0.545455 6.54545L4.76851e-07 6.54545L5.24537e-07 6L0.545455 6L0.545455 5.45454L1.09091 5.45455L1.09091 4.90909L1.63636 4.90909L1.63636 5.45455L2.18182 5.45455L2.18182 6L2.72727 6L2.72727 6.54545L3.27273 6.54545L3.27273 7.09091L3.81818 7.09091L3.81818 7.63636L4.36364 7.63636L4.36364 8.18182L4.90909 8.18182L4.90909 3.33767e-07L7.09091 5.24508e-07L7.09091 8.18182L7.63636 8.18182L7.63636 7.63636L8.18182 7.63636L8.18182 7.09091L8.72727 7.09091L8.72727 6.54545L9.27273 6.54545L9.27273 6L9.81818 6L9.81818 5.45455L10.3636 5.45455L10.3636 4.90909L10.9091 4.90909L10.9091 5.45455L11.4545 5.45455L11.4545 6L12 6L12 6.54545L11.4545 6.54545L11.4545 7.09091L10.9091 7.09091L10.9091 7.63636L10.3636 7.63636L10.3636 8.18182L9.81818 8.18182L9.81818 8.72727L9.27273 8.72727L9.27273 9.27273L8.72727 9.27273L8.72727 9.81818L8.18182 9.81818L8.18182 10.3636L7.63636 10.3636L7.63636 10.9091L7.09091 10.9091L7.09091 11.4545L6.54545 11.4545L6.54545 12Z" fill="white"/>
</svg>
