<svg width="24" height="24" viewBox="0 0 24 24" fill="none" xmlns="http://www.w3.org/2000/svg">
<path fill-rule="evenodd" clip-rule="evenodd" d="M9.97757 1.2472C9.97757 0.916419 9.84617 0.59919 9.61227 0.365295C9.37838 0.131401 9.06115 0 8.73037 0C8.3996 0 8.08237 0.131401 7.84847 0.365295C7.61458 0.59919 7.48318 0.916419 7.48318 1.2472V3.74159C7.48318 4.07237 7.61458 4.3896 7.84847 4.62349C8.08237 4.85738 8.3996 4.98878 8.73037 4.98878C9.06115 4.98878 9.37838 4.85738 9.61227 4.62349C9.84617 4.3896 9.97757 4.07237 9.97757 3.74159V1.2472ZM4.32029 2.55675C4.20524 2.43763 4.06762 2.34262 3.91545 2.27725C3.76329 2.21189 3.59963 2.17748 3.43403 2.17604C3.26843 2.17461 3.1042 2.20616 2.95092 2.26887C2.79765 2.33158 2.6584 2.42419 2.54129 2.54129C2.42419 2.6584 2.33158 2.79765 2.26887 2.95092C2.20616 3.1042 2.17461 3.26843 2.17604 3.43403C2.17748 3.59963 2.21189 3.76329 2.27725 3.91545C2.34262 4.06762 2.43763 4.20524 2.55675 4.32029L4.32029 6.08632C4.43625 6.20228 4.57391 6.29426 4.72542 6.35702C4.87693 6.41977 5.03931 6.45207 5.2033 6.45207C5.36729 6.45207 5.52968 6.41977 5.68119 6.35702C5.8327 6.29426 5.97036 6.20228 6.08632 6.08632C6.20228 5.97036 6.29426 5.8327 6.35702 5.68119C6.41977 5.52968 6.45207 5.36729 6.45207 5.2033C6.45207 5.03931 6.41977 4.87693 6.35702 4.72542C6.29426 4.57391 6.20228 4.43625 6.08632 4.32029L4.32029 2.55675ZM9.71691 7.74509C8.49715 7.3385 7.3385 8.49715 7.74384 9.71566L12.1502 22.9334C12.5954 24.2704 14.445 24.3777 15.0424 23.1006L17.6054 17.6054L23.1006 15.0424C24.3777 14.4463 24.2704 12.5954 22.9334 12.1502L9.71691 7.74509ZM14.904 2.55675C15.1378 2.79064 15.2692 3.10781 15.2692 3.43852C15.2692 3.76923 15.1378 4.0864 14.904 4.32029L13.1405 6.08632C13.0246 6.2022 12.887 6.29411 12.7356 6.35683C12.5842 6.41954 12.4219 6.45182 12.2581 6.45182C12.0942 6.45182 11.9319 6.41954 11.7805 6.35683C11.6291 6.29411 11.4916 6.2022 11.3757 6.08632C11.2598 5.97044 11.1679 5.83287 11.1052 5.68147C11.0425 5.53007 11.0102 5.3678 11.0102 5.20393C11.0102 5.04005 11.0425 4.87778 11.1052 4.72638C11.1679 4.57498 11.2598 4.43741 11.3757 4.32154L13.1405 2.558C13.3743 2.32419 13.6915 2.19284 14.0222 2.19284C14.3529 2.19284 14.6701 2.32294 14.904 2.55675ZM0 8.73037C0 8.3996 0.131401 8.08237 0.365295 7.84847C0.59919 7.61458 0.916419 7.48318 1.2472 7.48318H3.74159C4.07237 7.48318 4.3896 7.61458 4.62349 7.84847C4.85738 8.08237 4.98878 8.3996 4.98878 8.73037C4.98878 9.06115 4.85738 9.37838 4.62349 9.61227C4.3896 9.84617 4.07237 9.97757 3.74159 9.97757H1.2472C0.916419 9.97757 0.59919 9.84617 0.365295 9.61227C0.131401 9.37838 0 9.06115 0 8.73037ZM6.08507 13.1405C6.20095 13.0246 6.29287 12.887 6.35558 12.7356C6.41829 12.5842 6.45057 12.4219 6.45057 12.2581C6.45057 12.0942 6.41829 11.9319 6.35558 11.7805C6.29287 11.6291 6.20095 11.4916 6.08507 11.3757C5.96919 11.2598 5.83163 11.1679 5.68023 11.1052C5.52882 11.0425 5.36655 11.0102 5.20268 11.0102C5.0388 11.0102 4.87653 11.0425 4.72513 11.1052C4.57373 11.1679 4.43617 11.2598 4.32029 11.3757L2.55675 13.1405C2.43763 13.2555 2.34262 13.3931 2.27725 13.5453C2.21189 13.6975 2.17748 13.8611 2.17604 14.0267C2.17461 14.1923 2.20616 14.3565 2.26887 14.5098C2.33158 14.6631 2.42419 14.8024 2.54129 14.9195C2.6584 15.0366 2.79765 15.1292 2.95092 15.1919C3.1042 15.2546 3.26843 15.2861 3.43403 15.2847C3.59963 15.2833 3.76329 15.2489 3.91545 15.1835C4.06762 15.1181 4.20524 15.0231 4.32029 14.904L6.08507 13.1405Z" fill="#81F2B4"/>
</svg>
