<svg width="57" height="54" viewBox="0 0 57 54" fill="none" xmlns="http://www.w3.org/2000/svg">
<path d="M28.5 0.75C32.518 0.750001 36.1574 2.31118 38.792 4.83594C39.3989 5.41551 39.9504 6.04989 40.4404 6.72266H50.3965C52.0036 6.72266 53.4658 7.3521 54.5283 8.36816L54.7227 8.56348C55.6692 9.56118 56.2499 10.8879 56.25 12.3428V39.4531C56.25 41.0029 55.5896 42.4093 54.5293 43.4277H54.5283C53.4678 44.4441 52.0057 45.0732 50.3965 45.0732H38.4795V50.2793H49.5459C50.3863 50.2793 51.085 50.9338 51.085 51.7646C51.085 52.5955 50.3864 53.25 49.5459 53.25H7.45703C6.61663 53.25 5.91798 52.5955 5.91797 51.7646C5.91797 50.9338 6.61656 50.2793 7.45703 50.2793H18.5205V45.0732H6.60352C4.99651 45.0732 3.53421 44.4446 2.47168 43.4287V43.4277C1.41098 42.4112 0.75 41.0051 0.75 39.4531V12.3428C0.75006 10.7929 1.41036 9.38655 2.4707 8.36816H2.47168C3.53219 7.35196 4.99437 6.72266 6.60352 6.72266H16.5596C17.0517 6.04804 17.6034 5.4163 18.208 4.83691C20.8428 2.31189 24.4817 0.75 28.5 0.75ZM21.6016 50.2793H35.4033V45.0732H21.6016V50.2793ZM3.83105 39.4531C3.83111 40.1762 4.1388 40.8375 4.64355 41.3213C5.14647 41.8032 5.84171 42.1045 6.6084 42.1045H50.3994C51.1638 42.1044 51.8584 41.8049 52.3633 41.3213C52.866 40.8395 53.1767 40.178 53.1768 39.4531V37.0703H3.83105V39.4531ZM6.60547 9.69141C5.84096 9.69149 5.14649 9.9909 4.6416 10.4746C4.13889 10.9564 3.82812 11.6198 3.82812 12.3428V34.0996H53.1719V12.3428C53.1719 11.6197 52.8632 10.9584 52.3584 10.4746C51.8556 9.99284 51.161 9.69147 50.3945 9.69141H42.0879C42.7145 11.2504 43.0585 12.9423 43.0586 14.71C43.0586 18.5705 41.4251 22.0638 38.79 24.5889C36.1553 27.1138 32.5161 28.6747 28.498 28.6748C24.4798 28.6748 20.8398 27.1139 18.2051 24.5889C15.5701 22.0636 13.9365 18.5705 13.9365 14.71C13.9366 12.9407 14.2791 11.249 14.9072 9.69141H6.60547ZM28.501 3.71875C25.327 3.71915 22.4561 4.9517 20.3779 6.94336C18.3017 8.93306 17.0176 11.6803 17.0176 14.7148C17.0177 17.7473 18.2997 20.494 20.3779 22.4834C22.4543 24.4733 25.3262 25.709 28.5029 25.709C31.6773 25.7089 34.5489 24.4761 36.625 22.4844V22.4834C38.7011 20.4938 39.9853 17.747 39.9854 14.7148C39.9854 11.6823 38.7033 8.93505 36.625 6.94336C34.5487 4.95362 31.6774 3.71893 28.501 3.71875ZM24.7217 10.0459C25.3509 9.50295 26.3169 9.55219 26.8848 10.1562C27.423 10.7291 27.4087 11.5941 26.8818 12.1514L26.7695 12.2588L23.918 14.7139L26.7695 17.1699V17.1709C27.4048 17.7192 27.4566 18.662 26.8857 19.2725H26.8848C26.3165 19.8772 25.3513 19.9235 24.7227 19.3838V19.3828L20.5938 15.8262L20.5898 15.8232C20.5513 15.7886 20.516 15.7538 20.4814 15.7207L20.4717 15.7119C19.8976 15.1009 19.9524 14.1572 20.5869 13.6094H20.5879L24.6357 10.1221V10.1211L24.7217 10.0459ZM30.1201 10.1543C30.6884 9.54946 31.6545 9.50399 32.2832 10.0439L36.418 13.6045V13.6055C37.0531 14.1538 37.104 15.0966 36.5332 15.707L36.5303 15.7109L36.3506 15.5361L36.5293 15.7109C36.49 15.7511 36.449 15.7878 36.415 15.8184L36.4111 15.8223L32.2832 19.3789C31.6539 19.9219 30.688 19.8729 30.1201 19.2686C29.5459 18.6574 29.6006 17.7138 30.2354 17.166L33.0869 14.71L30.6504 12.6123L30.6514 12.6152L30.2354 12.2568C29.6001 11.7086 29.5493 10.7657 30.1201 10.1553V10.1543Z" fill="#070707" stroke="#F5F5F7" stroke-width="0.5"/>
</svg>
