<svg width="54" height="54" viewBox="0 0 54 54" fill="none" xmlns="http://www.w3.org/2000/svg">
<path d="M10.3311 0.75C12.8835 0.820443 15.3 1.91719 17.0381 3.78809L17.04 3.79004L26.998 14.7334L39.5479 2.23828L39.5488 2.2373C41.4822 0.32167 44.5597 0.261697 46.5645 2.05762L46.7559 2.2373L46.7568 2.23926L51.7109 7.22949L51.7119 7.23047C53.6761 9.22508 53.676 12.428 51.7119 14.4248L51.7109 14.4268L38.71 27.4365L41.4336 30.3008L41.4385 30.3057C42.4129 31.3883 42.8787 32.8334 42.7275 34.2744C43.1826 34.2387 43.6405 34.248 44.0938 34.3057L44.1016 34.3066L44.1084 34.3076C46.1979 34.6987 48.1071 35.7568 49.5498 37.3193L49.7061 37.4805C51.3007 39.1916 52.3165 42.1137 52.8691 46.1094L52.873 46.1416C53.0514 47.2029 53.2176 48.6343 53.2461 49.8896C53.2605 50.524 53.2396 51.1222 53.166 51.6084C53.1292 51.8514 53.0783 52.0738 53.0078 52.2617C52.9384 52.4467 52.8424 52.6185 52.7051 52.7383L52.6836 52.7578L52.6572 52.7715C51.9108 53.1619 51.0636 53.3191 50.2246 53.2197C48.8649 53.1965 47.5075 53.0981 46.1572 52.9258V52.9248C42.0668 52.4039 39.0635 51.2584 37.2822 49.4648L36.9941 49.1875C35.5847 47.7779 34.628 45.9761 34.248 44.0137L34.2461 44.0039L34.2451 43.9941C34.1935 43.5422 34.1858 43.0856 34.2178 42.6318C32.7729 42.7946 31.3214 42.3207 30.2471 41.3223L27.4355 38.7363L14.4326 51.75L14.4316 51.751C13.4735 52.7026 12.1795 53.2358 10.8281 53.2383H2.31641C1.45177 53.2383 0.750014 52.5367 0.75 51.6719V43.168C0.734066 41.7946 1.26957 40.4739 2.23633 39.499L2.2373 39.498L14.7217 27.0186L3.78809 17.0518H3.78711C1.90254 15.3231 0.806937 12.8962 0.75293 10.3389C0.698991 7.78137 1.69422 5.31287 3.50586 3.50684L3.50684 3.50586C5.32652 1.71977 7.77966 0.731258 10.3262 0.75H10.3311ZM43.5547 37.4678C41.9022 37.3205 40.2832 38.0052 39.2354 39.2949L39.2197 39.3145L39.1992 39.3311C37.9129 40.3775 37.228 41.9979 37.373 43.6523C37.6544 44.939 38.2914 46.1145 39.2061 47.0518L39.2266 46.9785L39.5303 47.2842C40.6679 48.4303 42.6654 49.1385 44.7627 49.5596C46.7166 49.9518 48.7118 50.0848 50.0703 50.1143C50.0121 48.7419 49.858 46.7137 49.4619 44.748C49.0363 42.6361 48.3448 40.6576 47.252 39.6104L47.2402 39.5986C46.2577 38.5275 44.9709 37.7835 43.5547 37.4678ZM11.3906 34.8457L19.1592 42.6201L25.084 36.6572L17.0049 29.2412L11.3906 34.8457ZM10.2598 3.89844L10.1318 3.89941L9.8916 3.90527C7.50572 4.0107 5.38733 5.46857 4.4375 7.66016L4.34668 7.88184C3.41562 10.2708 4.03618 12.9851 5.91309 14.7305L32.3584 39.0166L32.3604 39.0195C33.0732 39.6929 34.1622 39.7349 34.9219 39.1455L35.0693 39.0195L39.0947 35.0879C39.8054 34.3267 39.8031 33.1432 39.0879 32.3848L39.0859 32.3818L14.7197 5.91699C13.5699 4.66533 11.9577 3.93487 10.2598 3.89844ZM44.5498 4.42578C43.834 3.7123 42.7021 3.66826 41.9346 4.29297L41.7861 4.42676L29.2354 17.0518L36.6455 25.1211L49.5547 12.2021C49.9189 11.8377 50.124 11.3439 50.124 10.8271C50.124 10.3104 49.9189 9.81569 49.5547 9.45117L44.5498 4.42676V4.42578ZM3.89746 50.168H10.752C11.2917 50.1781 11.8121 49.9692 12.1963 49.5908L16.8896 44.8926L9.12012 37.1172L4.42871 41.8105L4.42969 41.8115C4.0835 42.1763 3.8914 42.6628 3.89746 43.1641V50.168Z" fill="#070707" stroke="#F5F5F7" stroke-width="0.5"/>
</svg>
