<svg width="16" height="16" viewBox="0 0 16 16" fill="none" xmlns="http://www.w3.org/2000/svg">
<g clip-path="url(#clip0_386_28)">
<path d="M15.9907 12.0864C15.848 13.1704 15.3157 14.1654 14.493 14.8856C13.6703 15.6058 12.6136 16.002 11.5202 16C5.1681 16 7.23904e-06 10.8319 7.23904e-06 4.47988C-0.00195278 3.3865 0.394164 2.3298 1.11437 1.50713C1.83458 0.684459 2.82963 0.152085 3.91367 0.0094382C4.1878 -0.0240334 4.4654 0.0320479 4.70504 0.169311C4.94467 0.306573 5.13349 0.517655 5.2433 0.771045L6.93293 4.54308V4.55268C7.017 4.74665 7.05172 4.95841 7.03399 5.16907C7.01626 5.37972 6.94663 5.58271 6.83133 5.75989C6.81692 5.78149 6.80172 5.80149 6.78572 5.82149L5.1201 7.79591C5.71931 9.01353 6.99293 10.2759 8.22655 10.8767L10.1738 9.21993C10.1929 9.20384 10.2129 9.18888 10.2338 9.17513C10.4108 9.05705 10.6145 8.98497 10.8264 8.96541C11.0383 8.94586 11.2517 8.97944 11.4474 9.06313L11.4578 9.06793L15.2267 10.7567C15.4805 10.8662 15.6921 11.0548 15.8298 11.2945C15.9675 11.5341 16.024 11.812 15.9907 12.0864Z" fill="white"/>
</g>
<defs>
<clipPath id="clip0_386_28">
<rect width="16" height="16" fill="white"/>
</clipPath>
</defs>
</svg>
