<svg width="18" height="18" viewBox="0 0 18 18" fill="none" xmlns="http://www.w3.org/2000/svg">
<mask id="path-1-inside-1_386_33" fill="white">
<path d="M2.07324 0C3.45666 2.39049 6.0394 4 9 4C11.9606 4 14.5433 2.39049 15.9268 0H18V18H15.9268C14.5433 15.6095 11.9606 14 9 14C6.0394 14 3.45666 15.6095 2.07324 18H0V0H2.07324Z"/>
</mask>
<path d="M2.07324 0L2.93875 -0.500888L2.64991 -1H2.07324V0ZM15.9268 0V-1H15.3501L15.0612 -0.500888L15.9268 0ZM18 0H19V-1H18V0ZM18 18V19H19V18H18ZM15.9268 18L15.0612 18.5009L15.3501 19H15.9268V18ZM2.07324 18V19H2.64991L2.93875 18.5009L2.07324 18ZM0 18H-1V19H0V18ZM0 0V-1H-1V0H0ZM2.07324 0L1.20773 0.500888C2.76225 3.18703 5.66746 5 9 5V4V3C6.41135 3 4.15108 1.59395 2.93875 -0.500888L2.07324 0ZM9 4V5C12.3325 5 15.2378 3.18703 16.7923 0.500888L15.9268 0L15.0612 -0.500888C13.8489 1.59395 11.5886 3 9 3V4ZM15.9268 0V1H18V0V-1H15.9268V0ZM18 0H17V18H18H19V0H18ZM18 18V17H15.9268V18V19H18V18ZM15.9268 18L16.7923 17.4991C15.2378 14.813 12.3325 13 9 13V14V15C11.5886 15 13.8489 16.406 15.0612 18.5009L15.9268 18ZM9 14V13C5.66746 13 2.76225 14.813 1.20773 17.4991L2.07324 18L2.93875 18.5009C4.15108 16.406 6.41135 15 9 15V14ZM2.07324 18V17H0V18V19H2.07324V18ZM0 18H1V0H0H-1V18H0ZM0 0V1H2.07324V0V-1H0V0Z" fill="#D3D3D3" mask="url(#path-1-inside-1_386_33)"/>
</svg>
